CalSansUI-Light.ufo
<glyph name="plus" format="2">
  <advance width="596"/>
  <unicode hex="002B"/>
  <outline>
    <contour>
      <point x="82" y="280" type="line"/>
      <point x="514" y="280" type="line"/>
      <point x="514" y="352" type="line"/>
      <point x="82" y="352" type="line"/>
    </contour>
    <contour>
      <point x="257" y="94" type="line"/>
      <point x="339" y="94" type="line"/>
      <point x="339" y="536" type="line"/>
      <point x="257" y="536" type="line"/>
    </contour>
  </outline>
</glyph>
<glyph name="zero" format="2">
  <advance width="594"/>
  <unicode hex="0030"/>
  <outline>
    <contour>
      <point x="297" y="-13" type="curve" smooth="yes"/>
      <point x="437" y="-12"/>
      <point x="539" y="92"/>
      <point x="539" y="239" type="curve" smooth="yes"/>
      <point x="539" y="471" type="line" smooth="yes"/>
      <point x="539" y="606"/>
      <point x="437" y="712"/>
      <point x="297" y="711" type="curve" smooth="yes"/>
      <point x="157" y="710"/>
      <point x="55" y="606"/>
      <point x="55" y="466" type="curve" smooth="yes"/>
      <point x="55" y="232" type="line" smooth="yes"/>
      <point x="55" y="92"/>
      <point x="157" y="-14"/>
    </contour>
    <contour>
      <point x="297" y="64" type="curve" smooth="yes"/>
      <point x="208" y="64"/>
      <point x="143" y="132"/>
      <point x="143" y="244" type="curve" smooth="yes"/>
      <point x="143" y="465" type="line" smooth="yes"/>
      <point x="143" y="569"/>
      <point x="208" y="634"/>
      <point x="297" y="634" type="curve" smooth="yes"/>
      <point x="386" y="634"/>
      <point x="451" y="566"/>
      <point x="451" y="460" type="curve" smooth="yes"/>
      <point x="451" y="238" type="line" smooth="yes"/>
      <point x="451" y="129"/>
      <point x="386" y="64"/>
    </contour>
  </outline>
</glyph>
<glyph name="six" format="2">
  <advance width="564"/>
  <unicode hex="0036"/>
  <outline>
    <contour>
      <point x="287" y="-13" type="curve" smooth="yes"/>
      <point x="423" y="-13"/>
      <point x="518" y="81"/>
      <point x="518" y="214" type="curve" smooth="yes"/>
      <point x="518" y="380"/>
      <point x="364" y="470"/>
      <point x="226" y="404" type="curve"/>
      <point x="225" y="406" type="line"/>
      <point x="400" y="700" type="line"/>
      <point x="300" y="700" type="line"/>
      <point x="123" y="403" type="line" smooth="yes"/>
      <point x="90" y="348"/>
      <point x="53" y="276"/>
      <point x="53" y="211" type="curve" smooth="yes"/>
      <point x="53" y="81"/>
      <point x="148" y="-13"/>
    </contour>
    <contour>
      <point x="287" y="62" type="curve" smooth="yes"/>
      <point x="205" y="62"/>
      <point x="140" y="120"/>
      <point x="140" y="214" type="curve" smooth="yes"/>
      <point x="140" y="295"/>
      <point x="201" y="358"/>
      <point x="294" y="358" type="curve" smooth="yes"/>
      <point x="369" y="358"/>
      <point x="433" y="295"/>
      <point x="433" y="211" type="curve" smooth="yes"/>
      <point x="433" y="120"/>
      <point x="366" y="62"/>
    </contour>
  </outline>
</glyph>
<glyph name="nine" format="2">
  <advance width="564"/>
  <unicode hex="0039"/>
  <outline>
    <contour>
      <point x="164" y="0" type="line"/>
      <point x="264" y="0" type="line"/>
      <point x="441" y="297" type="line" smooth="yes"/>
      <point x="474" y="352"/>
      <point x="511" y="424"/>
      <point x="511" y="489" type="curve" smooth="yes"/>
      <point x="511" y="619"/>
      <point x="416" y="713"/>
      <point x="277" y="713" type="curve" smooth="yes"/>
      <point x="141" y="713"/>
      <point x="46" y="619"/>
      <point x="46" y="486" type="curve" smooth="yes"/>
      <point x="46" y="320"/>
      <point x="200" y="230"/>
      <point x="338" y="296" type="curve"/>
      <point x="339" y="294" type="line"/>
    </contour>
    <contour>
      <point x="270" y="342" type="curve" smooth="yes"/>
      <point x="195" y="342"/>
      <point x="131" y="405"/>
      <point x="131" y="489" type="curve" smooth="yes"/>
      <point x="131" y="580"/>
      <point x="198" y="638"/>
      <point x="277" y="638" type="curve" smooth="yes"/>
      <point x="359" y="638"/>
      <point x="424" y="580"/>
      <point x="424" y="486" type="curve" smooth="yes"/>
      <point x="424" y="405"/>
      <point x="363" y="342"/>
    </contour>
  </outline>
</glyph>
<glyph name="underscore" format="2">
  <advance width="506"/>
  <unicode hex="005F"/>
  <outline>
    <contour>
      <point x="40" y="-60" type="line"/>
      <point x="466" y="-60" type="line"/>
      <point x="466" y="0" type="line"/>
      <point x="40" y="0" type="line"/>
    </contour>
  </outline>
</glyph>
<glyph name="f" format="2">
  <advance width="386"/>
  <unicode hex="0066"/>
  <anchor x="155" y="0" name="bottom"/>
  <anchor x="242" y="740" name="top"/>
  <outline>
    <contour>
      <point x="117" y="0" type="line"/>
      <point x="197" y="0" type="line"/>
      <point x="197" y="584" type="line" smooth="yes"/>
      <point x="197" y="641"/>
      <point x="228" y="680"/>
      <point x="297" y="680" type="curve" smooth="yes"/>
      <point x="325" y="680"/>
      <point x="347" y="679"/>
      <point x="369" y="672" type="curve"/>
      <point x="369" y="743" type="line"/>
      <point x="337" y="751"/>
      <point x="320" y="753"/>
      <point x="285" y="753" type="curve" smooth="yes"/>
      <point x="187" y="753"/>
      <point x="117" y="687"/>
      <point x="117" y="589" type="curve" smooth="yes"/>
    </contour>
    <contour>
      <point x="17" y="418" type="line"/>
      <point x="369" y="418" type="line"/>
      <point x="369" y="490" type="line"/>
      <point x="17" y="490" type="line"/>
    </contour>
  </outline>
</glyph>
<glyph name="l" format="2">
  <advance width="224"/>
  <unicode hex="006C"/>
  <anchor x="112" y="0" name="bottom"/>
  <anchor x="112" y="393" name="center"/>
  <anchor x="152" y="0" name="ogonek"/>
  <anchor x="112" y="740" name="top"/>
  <anchor x="202" y="740" name="topright"/>
  <outline>
    <contour>
      <point x="72" y="0" type="line"/>
      <point x="152" y="0" type="line"/>
      <point x="152" y="740" type="line"/>
      <point x="72" y="740" type="line"/>
      <point x="72" y="141" type="line"/>
    </contour>
  </outline>
</glyph>
<glyph name="pi" format="2">
  <advance width="597"/>
  <unicode hex="03C0"/>
  <outline>
    <contour>
      <point x="521" y="-7" type="curve" smooth="yes"/>
      <point x="548" y="-8"/>
      <point x="560" y="-5"/>
      <point x="580" y="3" type="curve"/>
      <point x="580" y="74" type="line"/>
      <point x="572" y="67"/>
      <point x="546" y="66"/>
      <point x="529" y="66" type="curve" smooth="yes"/>
      <point x="484" y="66"/>
      <point x="460" y="95"/>
      <point x="460" y="152" type="curve" smooth="yes"/>
      <point x="460" y="418" type="line"/>
      <point x="580" y="418" type="line"/>
      <point x="580" y="490" type="line"/>
      <point x="17" y="490" type="line"/>
      <point x="17" y="418" type="line"/>
      <point x="132" y="418" type="line"/>
      <point x="132" y="0" type="line"/>
      <point x="212" y="0" type="line"/>
      <point x="212" y="418" type="line"/>
      <point x="380" y="418" type="line"/>
      <point x="380" y="147" type="line" smooth="yes"/>
      <point x="380" y="49"/>
      <point x="428" y="-4"/>
    </contour>
  </outline>
</glyph>
<glyph name="rupeeIndian" format="2">
  <advance width="608"/>
  <unicode hex="20B9"/>
  <outline>
    <contour>
      <point x="367" y="30" type="line"/>
      <point x="468" y="30" type="line"/>
      <point x="263" y="312" type="line"/>
      <point x="256" y="278" type="line"/>
      <point x="361" y="281"/>
      <point x="464" y="347"/>
      <point x="464" y="473" type="curve" smooth="yes"/>
      <point x="464" y="605"/>
      <point x="356" y="670"/>
      <point x="229" y="670" type="curve" smooth="yes"/>
      <point x="42" y="670" type="line"/>
      <point x="42" y="594" type="line"/>
      <point x="217" y="594" type="line" smooth="yes"/>
      <point x="313" y="594"/>
      <point x="378" y="562"/>
      <point x="378" y="473" type="curve" smooth="yes"/>
      <point x="378" y="381"/>
      <point x="313" y="349"/>
      <point x="217" y="349" type="curve" smooth="yes"/>
      <point x="42" y="349" type="line"/>
      <point x="42" y="273" type="line"/>
      <point x="188" y="273" type="line"/>
    </contour>
    <contour>
      <point x="42" y="435" type="line"/>
      <point x="544" y="435" type="line"/>
      <point x="592" y="507" type="line"/>
      <point x="91" y="507" type="line"/>
    </contour>
    <contour>
      <point x="194" y="598" type="line"/>
      <point x="574" y="598" type="line"/>
      <point x="623" y="670" type="line"/>
      <point x="194" y="670" type="line"/>
    </contour>
  </outline>
</glyph>
<glyph name="riyalSaudi" format="2">
  <advance width="600"/>
  <unicode hex="20C1"/>
  <outline>
    <contour>
      <point x="18" y="65" type="line"/>
      <point x="135" y="94" type="line" smooth="yes"/>
      <point x="194" y="109"/>
      <point x="264" y="182"/>
      <point x="264" y="245" type="curve" smooth="yes"/>
      <point x="264" y="767" type="line"/>
      <point x="194" y="732" type="line"/>
      <point x="191" y="193" type="line"/>
      <point x="34" y="155" type="line"/>
    </contour>
    <contour>
      <point x="341" y="31" type="line"/>
      <point x="566" y="80" type="line"/>
      <point x="583" y="168" type="line"/>
      <point x="361" y="120" type="line"/>
    </contour>
    <contour>
      <point x="18" y="239" type="line"/>
      <point x="564" y="361" type="line"/>
      <point x="583" y="452" type="line"/>
      <point x="34" y="330" type="line"/>
    </contour>
    <contour>
      <point x="341" y="174" type="line"/>
      <point x="564" y="219" type="line"/>
      <point x="583" y="310" type="line"/>
      <point x="362" y="260" type="line"/>
    </contour>
    <contour>
      <point x="341" y="174" type="line"/>
      <point x="411" y="191" type="line"/>
      <point x="411" y="713" type="line"/>
      <point x="341" y="679" type="line"/>
    </contour>
  </outline>
</glyph>
<glyph name="emptyset" format="2">
  <advance width="641"/>
  <unicode hex="2205"/>
  <outline>
    <contour>
      <point x="321" y="-4" type="curve" smooth="yes"/>
      <point x="481" y="-4"/>
      <point x="611" y="126"/>
      <point x="611" y="287" type="curve" smooth="yes"/>
      <point x="611" y="446"/>
      <point x="481" y="576"/>
      <point x="321" y="576" type="curve" smooth="yes"/>
      <point x="160" y="576"/>
      <point x="30" y="446"/>
      <point x="30" y="287" type="curve" smooth="yes"/>
      <point x="30" y="126"/>
      <point x="160" y="-4"/>
    </contour>
    <contour>
      <point x="53" y="53" type="line"/>
      <point x="89" y="17" type="line"/>
      <point x="590" y="518" type="line"/>
      <point x="554" y="554" type="line"/>
    </contour>
    <contour>
      <point x="321" y="47" type="curve" smooth="yes"/>
      <point x="188" y="47"/>
      <point x="81" y="154"/>
      <point x="81" y="287" type="curve" smooth="yes"/>
      <point x="81" y="418"/>
      <point x="188" y="525"/>
      <point x="321" y="525" type="curve" smooth="yes"/>
      <point x="453" y="525"/>
      <point x="560" y="418"/>
      <point x="560" y="287" type="curve" smooth="yes"/>
      <point x="560" y="154"/>
      <point x="453" y="47"/>
    </contour>
  </outline>
</glyph>
<glyph name="minus" format="2">
  <advance width="596"/>
  <unicode hex="2212"/>
  <outline>
    <contour>
      <point x="82" y="280" type="line"/>
      <point x="514" y="280" type="line"/>
      <point x="514" y="352" type="line"/>
      <point x="82" y="352" type="line"/>
    </contour>
  </outline>
</glyph>
<glyph name="rightWhiteSmallTriangle" format="2">
  <advance width="281"/>
  <unicode hex="25B9"/>
  <outline>
    <contour>
      <point x="90" y="261" type="line"/>
      <point x="261" y="360" type="line"/>
      <point x="90" y="458" type="line"/>
    </contour>
    <contour>
      <point x="126" y="396" type="line"/>
      <point x="189" y="360" type="line"/>
      <point x="126" y="324" type="line"/>
    </contour>
  </outline>
</glyph>
<glyph name="whiteCircle" format="2">
  <advance width="786"/>
  <unicode hex="25CB"/>
  <outline>
    <contour>
      <point x="394" y="-13" type="curve" smooth="yes"/>
      <point x="593" y="-13"/>
      <point x="756" y="149"/>
      <point x="756" y="350" type="curve" smooth="yes"/>
      <point x="756" y="549"/>
      <point x="593" y="713"/>
      <point x="394" y="713" type="curve" smooth="yes"/>
      <point x="194" y="713"/>
      <point x="30" y="549"/>
      <point x="30" y="350" type="curve" smooth="yes"/>
      <point x="30" y="149"/>
      <point x="194" y="-13"/>
    </contour>
    <contour>
      <point x="394" y="39" type="curve" smooth="yes"/>
      <point x="224" y="39"/>
      <point x="86" y="181"/>
      <point x="86" y="350" type="curve" smooth="yes"/>
      <point x="86" y="515"/>
      <point x="221" y="661"/>
      <point x="394" y="661" type="curve" smooth="yes"/>
      <point x="570" y="661"/>
      <point x="700" y="512"/>
      <point x="700" y="350" type="curve" smooth="yes"/>
      <point x="700" y="178"/>
      <point x="560" y="39"/>
    </contour>
  </outline>
</glyph>
<glyph name="blackStar" format="2">
  <advance width="809"/>
  <unicode hex="2605"/>
  <outline>
    <contour>
      <point x="157" y="-13" type="line"/>
      <point x="404" y="167" type="line"/>
      <point x="651" y="-13" type="line"/>
      <point x="557" y="277" type="line"/>
      <point x="804" y="457" type="line"/>
      <point x="499" y="457" type="line"/>
      <point x="404" y="747" type="line"/>
      <point x="310" y="457" type="line"/>
      <point x="5" y="457" type="line"/>
      <point x="252" y="277" type="line"/>
    </contour>
  </outline>
</glyph>
<glyph name="ballotX" format="2">
  <advance width="600"/>
  <unicode hex="2717"/>
  <outline>
    <contour>
      <point x="445" y="157" type="line"/>
      <point x="492" y="205" type="line"/>
      <point x="155" y="543" type="line"/>
      <point x="108" y="495" type="line"/>
    </contour>
    <contour>
      <point x="155" y="157" type="line"/>
      <point x="492" y="495" type="line"/>
      <point x="445" y="543" type="line"/>
      <point x="108" y="205" type="line"/>
    </contour>
  </outline>
</glyph>
<glyph name="f_f_i" format="2">
  <advance width="898"/>
  <anchor x="155" y="0" name="bottom_1"/>
  <anchor x="242" y="740" name="top_1"/>
  <anchor x="471" y="0" name="bottom_2"/>
  <anchor x="558" y="740" name="top_2"/>
  <anchor x="787" y="0" name="bottom_3"/>
  <anchor x="749" y="0" name="ogonek_3"/>
  <anchor x="787" y="490" name="top_3"/>
  <anchor x="369" y="0" name="caret_1"/>
  <anchor x="685" y="0" name="caret_2"/>
  <outline>
    <contour>
      <point x="17" y="418" type="line"/>
      <point x="817" y="418" type="line"/>
      <point x="827" y="490" type="line"/>
      <point x="17" y="490" type="line"/>
    </contour>
    <component base="f"/>
    <component base="f" xOffset="316"/>
    <component base="i" xOffset="675"/>
  </outline>
</glyph>
<glyph name="four.numr" format="2">
  <advance width="305"/>
  <outline>
    <contour>
      <point x="180" y="313" type="line"/>
      <point x="234" y="313" type="line"/>
      <point x="234" y="427" type="line"/>
      <point x="279" y="427" type="line"/>
      <point x="279" y="476" type="line"/>
      <point x="234" y="476" type="line"/>
      <point x="234" y="706" type="line"/>
      <point x="196" y="706" type="line"/>
      <point x="9" y="447" type="line"/>
      <point x="9" y="427" type="line"/>
      <point x="180" y="427" type="line"/>
    </contour>
    <contour>
      <point x="91" y="476" type="line"/>
      <point x="91" y="477" type="line"/>
      <point x="94" y="480"/>
      <point x="97" y="483"/>
      <point x="99" y="486" type="curve" smooth="yes"/>
      <point x="167" y="580" type="line" smooth="yes"/>
      <point x="173" y="588"/>
      <point x="176" y="596"/>
      <point x="181" y="608" type="curve"/>
      <point x="182" y="608" type="line"/>
      <point x="181" y="601"/>
      <point x="181" y="593"/>
      <point x="181" y="585" type="curve" smooth="yes"/>
      <point x="181" y="476" type="line"/>
    </contour>
  </outline>
</glyph>
<glyph name="guarani.tf" format="2">
  <advance width="596"/>
  <anchor x="320" y="653" name="_TopCurrency"/>
  <outline>
    <contour>
      <point x="326" y="31" type="curve" smooth="yes"/>
      <point x="428" y="31"/>
      <point x="512" y="69"/>
      <point x="578" y="133" type="curve"/>
      <point x="578" y="371" type="line"/>
      <point x="290" y="371" type="line"/>
      <point x="290" y="303" type="line"/>
      <point x="537" y="303" type="line"/>
      <point x="502" y="326" type="line"/>
      <point x="502" y="118" type="line"/>
      <point x="524" y="182" type="line"/>
      <point x="466" y="129"/>
      <point x="410" y="101"/>
      <point x="327" y="101" type="curve" smooth="yes"/>
      <point x="191" y="101"/>
      <point x="95" y="215"/>
      <point x="95" y="354" type="curve" smooth="yes"/>
      <point x="95" y="493"/>
      <point x="182" y="609"/>
      <point x="321" y="609" type="curve" smooth="yes"/>
      <point x="398" y="609"/>
      <point x="437" y="590"/>
      <point x="480" y="529" type="curve"/>
      <point x="540" y="575" type="line"/>
      <point x="477" y="654"/>
      <point x="423" y="679"/>
      <point x="320" y="679" type="curve" smooth="yes"/>
      <point x="141" y="679"/>
      <point x="13" y="534"/>
      <point x="13" y="354" type="curve" smooth="yes"/>
      <point x="13" y="175"/>
      <point x="145" y="31"/>
    </contour>
    <component base="verticalTopCurrencycomb" xOffset="320"/>
    <component base="verticalBottomCurrencycomb" xOffset="320"/>
  </outline>
</glyph>
<glyph name="liraTurkish.tf" format="2">
  <advance width="596"/>
  <outline>
    <contour>
      <point x="58" y="293" type="line"/>
      <point x="520" y="388" type="line"/>
      <point x="520" y="465" type="line"/>
      <point x="58" y="370" type="line"/>
    </contour>
    <contour>
      <point x="58" y="420" type="line"/>
      <point x="520" y="515" type="line"/>
      <point x="520" y="592" type="line"/>
      <point x="58" y="497" type="line"/>
    </contour>
    <contour>
      <point x="149" y="30" type="line"/>
      <point x="251" y="30" type="line" smooth="yes"/>
      <point x="402" y="30"/>
      <point x="517" y="116"/>
      <point x="533" y="267" type="curve" smooth="yes"/>
      <point x="538" y="315" type="line"/>
      <point x="465" y="322" type="line"/>
      <point x="460" y="277" type="line" smooth="yes"/>
      <point x="447" y="158"/>
      <point x="370" y="106"/>
      <point x="252" y="106" type="curve" smooth="yes"/>
      <point x="231" y="106" type="line"/>
      <point x="231" y="670" type="line"/>
      <point x="149" y="670" type="line"/>
    </contour>
  </outline>
</glyph>
<glyph name="one.numr" format="2">
  <advance width="167"/>
  <outline>
    <contour>
      <point x="64" y="315" type="line"/>
      <point x="117" y="315" type="line"/>
      <point x="117" y="706" type="line"/>
      <point x="-2" y="657" type="line"/>
      <point x="17" y="608" type="line"/>
      <point x="63" y="627" type="line"/>
      <point x="64" y="626" type="line"/>
    </contour>
  </outline>
</glyph>
<glyph name="two.numr" format="2">
  <advance width="325"/>
  <outline>
    <contour>
      <point x="29" y="313" type="line"/>
      <point x="285" y="313" type="line"/>
      <point x="285" y="362" type="line"/>
      <point x="127" y="361" type="line"/>
      <point x="127" y="362" type="line"/>
      <point x="130" y="364"/>
      <point x="135" y="367"/>
      <point x="140" y="373" type="curve" smooth="yes"/>
      <point x="231" y="478" type="line" smooth="yes"/>
      <point x="259" y="510"/>
      <point x="281" y="547"/>
      <point x="281" y="590" type="curve" smooth="yes"/>
      <point x="281" y="636"/>
      <point x="245" y="706"/>
      <point x="156" y="706" type="curve" smooth="yes"/>
      <point x="93" y="706"/>
      <point x="29" y="667"/>
      <point x="29" y="568" type="curve"/>
      <point x="83" y="568" type="line"/>
      <point x="83" y="637"/>
      <point x="120" y="657"/>
      <point x="155" y="657" type="curve" smooth="yes"/>
      <point x="202" y="657"/>
      <point x="225" y="622"/>
      <point x="225" y="586" type="curve" smooth="yes"/>
      <point x="225" y="552"/>
      <point x="203" y="524"/>
      <point x="181" y="497" type="curve" smooth="yes"/>
      <point x="29" y="328" type="line"/>
    </contour>
  </outline>
</glyph>
<glyph name="zero.lf" format="2">
  <advance width="618"/>
  <outline>
    <contour>
      <point x="309" y="-13" type="curve" smooth="yes"/>
      <point x="449" y="-12"/>
      <point x="551" y="92"/>
      <point x="551" y="239" type="curve" smooth="yes"/>
      <point x="551" y="471" type="line" smooth="yes"/>
      <point x="551" y="606"/>
      <point x="449" y="712"/>
      <point x="309" y="711" type="curve" smooth="yes"/>
      <point x="169" y="710"/>
      <point x="67" y="606"/>
      <point x="67" y="466" type="curve" smooth="yes"/>
      <point x="67" y="232" type="line" smooth="yes"/>
      <point x="67" y="92"/>
      <point x="169" y="-14"/>
    </contour>
    <contour>
      <point x="309" y="64" type="curve" smooth="yes"/>
      <point x="220" y="64"/>
      <point x="155" y="132"/>
      <point x="155" y="244" type="curve" smooth="yes"/>
      <point x="155" y="465" type="line" smooth="yes"/>
      <point x="155" y="569"/>
      <point x="220" y="634"/>
      <point x="309" y="634" type="curve" smooth="yes"/>
      <point x="398" y="634"/>
      <point x="463" y="566"/>
      <point x="463" y="460" type="curve" smooth="yes"/>
      <point x="463" y="238" type="line" smooth="yes"/>
      <point x="463" y="129"/>
      <point x="398" y="64"/>
    </contour>
  </outline>
</glyph>
